<?xml version="1.0"?>
<svg xmlns="http://www.w3.org/2000/svg" width="200" height="122.52" viewBox="0 0 200 122.52" style="enable-background:new 0 0 200 122.52;">
<style type="text/css">
	.st0{fill:#321E1D;}
	.st1{fill:#F8A62B;}
</style>
<path class="st0" d="M38.62,58.51L38.62,58.51c0-12.43-7.86-22.51-21.71-22.51H4.58v45.02H16.9 C30.75,81.02,38.62,71.05,38.62,58.51z M0.12,85.24L0.12,85.24V31.77H16.9c16.2,0,26.53,12.08,26.53,26.73 c0,14.89-10.33,26.73-26.53,26.73H0.12z"/>
<path class="st0" d="M103.76,77.73L103.76,77.73l2.82-3.52c3.4,3.99,8.92,7.86,16.55,7.86c10.68,0,13.73-6.1,13.73-10.67 c0-15.71-31.46-7.62-31.46-26.26c0-8.68,7.63-14.19,17.25-14.19c7.75,0,13.73,2.81,17.72,7.5l-2.93,3.4 c-3.76-4.69-9.16-6.8-15.02-6.8c-7.04,0-12.32,4.1-12.32,9.85c0,13.72,31.45,6.21,31.45,26.14c0,6.92-4.46,15.12-18.66,15.12 C114.32,86.17,107.75,82.54,103.76,77.73z"/>
<path class="st0" d="M162.79,67.88L162.79,67.88h24.88L175.23,36.7L162.79,67.88z M194.37,85.24L194.37,85.24L189.2,72.1h-27.82 l-5.29,13.13h-5.16l21.48-53.46h5.63l21.48,53.46H194.37z"/>
<path class="st1" d="M60.56,29.19L60.56,29.19C59.27,8.32,52.58,3.05,52.58,3.05L54.22,0c0,0,7.51,7.39,9.98,23.45L60.56,29.19z"/>
<path class="st1" d="M77.7,81.02L77.7,81.02h-7.16H60.21c-0.23-4.57-0.35-12.55,0.59-21.1h3.99h4.93h2.35h5.63 c7.28,0,11.03,5.16,11.03,10.55C88.73,77.03,84.62,81.02,77.7,81.02z M67.72,35.99L67.72,35.99h4.23h5.4 c6.81,0,10.33,4.46,10.33,9.85c0,5.63-3.52,9.85-10.33,9.85c-4.34,0-8.8,0-13.26,0h-2.7C62.44,48.77,64.44,41.74,67.72,35.99z M83.22,57.69L83.22,57.69c4.69-0.94,9.15-5.51,9.15-12.31c0-1.99-0.35-4.1-1.17-5.98c-0.7-1.76-1.88-3.28-3.29-4.46 c-1.53-1.29-3.4-2.11-5.28-2.58c-2-0.47-4.11-0.59-6.22-0.59h-5.99c10.8-15.59,19.25-17.23,19.25-17.23V10.9 c0,0-13.97,3.99-25.47,22.28c-11.39,18.29-8.45,52.06-8.45,52.06h3.87h4.7h4.81h3.29h5.99c9.39,0,15.02-5.51,15.02-14.42 C93.43,64.48,88.85,58.51,83.22,57.69z"/>
<path class="st0" d="M3.99,119L3.99,119H0.94l0.82-3.63h2.82c1.17,0,1.76,0.7,1.76,1.64C6.34,118.06,5.52,119,3.99,119z M5.05,114.66L5.05,114.66H2l0.7-3.52h2.82c0.82,0,1.53,0.7,1.53,1.52C7.04,113.61,6.57,114.66,5.05,114.66z M3.99,119.82 L3.99,119.82c2.11,0,3.17-1.41,3.17-2.81c0-0.82-0.59-1.76-1.41-1.88c1.17-0.23,2.23-1.17,2.23-2.58c0-1.29-1.06-2.11-2.35-2.11 H2.11L0,119.82H3.99z"/>
<path class="st0" d="M11.5,113.02L11.5,113.02l-1.06,4.69c0,0.12-0.12,0.47-0.12,0.59c0,1.06,0.94,1.64,2,1.64 c0.94,0,1.88-0.59,2.46-1.17l-0.23,1.06h0.71l1.53-6.8h-0.7l-1.17,5.04c-0.59,0.7-1.41,1.17-2.23,1.17 c-0.94,0-1.53-0.35-1.53-1.17c0-0.12,0-0.35,0.12-0.47l0.94-4.57H11.5z"/>
<path class="st0" d="M19.72,119.82L19.72,119.82l1.53-6.8h-0.82l-1.41,6.8H19.72z M21.13,111.97L21.13,111.97 c0.23,0,0.59-0.23,0.59-0.59c0-0.23-0.23-0.47-0.47-0.47c-0.23,0-0.59,0.23-0.59,0.59C20.66,111.73,20.77,111.97,21.13,111.97z"/>
<polygon class="st0" points="24.06,119.82 24.06,119.82 26.17,110.44 25.47,110.44 23.36,119.82"/>
<path class="st0" d="M31.57,113.49L31.57,113.49c1.17,0,1.99,0.59,2.23,1.29l-0.7,3.17c-0.47,0.7-1.29,1.29-2.23,1.29 c-1.29,0-1.99-0.82-1.99-2.23C28.87,115.25,29.93,113.49,31.57,113.49z M31.57,112.91L31.57,112.91c-2.11,0-3.52,1.99-3.52,4.22 c0,1.76,1.06,2.81,2.58,2.81c0.94,0,1.76-0.47,2.35-1.17l-0.23,1.06h0.7l2.11-9.38h-0.71l-0.82,3.75 C33.57,113.38,32.63,112.91,31.57,112.91z"/>
<path class="st0" d="M37.91,119.82L37.91,119.82l1.53-6.8h-0.82l-1.41,6.8H37.91z M39.32,111.97L39.32,111.97 c0.23,0,0.59-0.23,0.59-0.59c0-0.23-0.23-0.47-0.47-0.47c-0.23,0-0.59,0.23-0.59,0.59C38.85,111.73,39.08,111.97,39.32,111.97z" />
<path class="st0" d="M46.83,119.82L46.83,119.82l1.06-4.69c0-0.23,0.12-0.47,0.12-0.59c0-1.17-0.82-1.64-1.99-1.64 c-0.94,0-1.88,0.59-2.46,1.17l0.23-1.05h-0.7l-1.53,6.8h0.71l1.17-5.16c0.59-0.59,1.41-1.17,2.23-1.17 c0.94,0,1.53,0.35,1.53,1.17c0,0.23,0,0.35,0,0.59l-1.06,4.57H46.83z"/>
<path class="st0" d="M53.64,119.24L53.64,119.24c-1.29,0-2.11-0.82-2.11-2.23c0-1.64,1.06-3.52,2.82-3.52 c0.94,0,1.88,0.47,2.23,1.29l-0.7,3.28C55.4,118.65,54.46,119.24,53.64,119.24z M53.17,122.52L53.17,122.52 c1.41,0,2.58-0.7,3.05-2.81l1.53-6.68h-0.7l-0.35,1.17c-0.47-0.7-1.41-1.29-2.35-1.29c-2.23,0-3.52,1.99-3.52,4.22 c0,1.88,1.06,2.81,2.46,2.81c1.06,0,1.88-0.59,2.47-1.29l-0.23,1.06c-0.35,1.52-1.29,2.11-2.35,2.11c-1.17,0-1.99-0.23-2.46-0.94 l-0.47,0.47C50.94,122.29,51.88,122.52,53.17,122.52z"/>
<path class="st0" d="M71.24,116.78L71.24,116.78h-4.46l3.4-5.51L71.24,116.78z M72.65,119.82L72.65,119.82l-1.76-9.38h-0.94 l-5.87,9.38h0.94l1.41-2.34h4.93l0.35,2.34H72.65z"/>
<path class="st0" d="M76.29,119.82L76.29,119.82l1.41-6.1h1.29l0.23-0.7h-1.41l0.12-0.59c0.23-0.94,0.59-1.41,1.41-1.41 c0.35,0,0.7,0.12,0.82,0.35l0.47-0.59c-0.35-0.35-0.82-0.47-1.29-0.47c-1.17,0-1.88,0.82-2.11,2.11l-0.12,0.59h-1.17l-0.12,0.7 H77l-1.41,6.1H76.29z"/>
<path class="st0" d="M81.22,119.82L81.22,119.82l1.06-4.92c0.47-0.7,1.17-1.29,2-1.29c0.23,0,0.47,0,0.59,0.12l0.12-0.82 c-1.17,0-1.88,0.47-2.58,1.17l0.24-1.05h-0.71l-1.41,6.8H81.22z"/>
<path class="st0" d="M86.97,119.82L86.97,119.82l1.53-6.8h-0.7l-1.53,6.8H86.97z M88.38,111.97L88.38,111.97 c0.35,0,0.7-0.23,0.7-0.59c0-0.23-0.23-0.47-0.47-0.47c-0.35,0-0.7,0.23-0.7,0.59C87.91,111.73,88.15,111.97,88.38,111.97z"/>
<path class="st0" d="M94.01,119.94L94.01,119.94c0.94,0,1.64-0.47,2.23-1.06l-0.35-0.47c-0.47,0.47-1.06,0.82-1.88,0.82 c-1.29,0-2.23-0.7-2.23-2.23c0-1.76,1.06-3.52,2.93-3.52c0.7,0,1.41,0.35,1.88,1.06l0.47-0.47c-0.35-0.7-1.17-1.17-2.35-1.17 c-2.11,0-3.75,1.88-3.75,4.1C90.96,118.89,92.25,119.94,94.01,119.94z"/>
<path class="st0" d="M102.82,113.49L102.82,113.49c1.17,0,1.99,0.59,2.35,1.29l-0.82,3.17c-0.35,0.7-1.29,1.29-2.23,1.29 c-1.29,0-1.99-0.82-1.99-2.23C100.12,115.25,101.17,113.49,102.82,113.49z M102.82,112.91L102.82,112.91 c-2.11,0-3.52,1.99-3.52,4.22c0,1.76,1.06,2.81,2.58,2.81c0.94,0,1.76-0.47,2.35-1.17l-0.23,1.06h0.7l1.53-6.8h-0.7l-0.23,1.17 C104.81,113.38,103.87,112.91,102.82,112.91z"/>
<path class="st0" d="M111.39,111.03L111.39,111.03c0-0.47-0.23-0.7-0.59-0.7c-0.35,0-0.59,0.35-0.59,0.7 c0,0.23,0.12,0.47,0.47,0.47c-0.12,0.47-0.47,0.94-1.06,1.17l0.35,0.35C110.68,112.67,111.39,111.85,111.39,111.03z"/>
<path class="st0" d="M114.91,119.94L114.91,119.94c1.64,0,2.58-1.06,2.58-2.11c0-1.99-3.64-1.76-3.64-3.17 c0-0.7,0.59-1.17,1.64-1.17c0.94,0,1.76,0.47,2.11,0.94l0.47-0.47c-0.47-0.59-1.29-1.05-2.47-1.05c-1.64,0-2.46,0.82-2.46,1.99 c0,1.76,3.52,1.64,3.52,3.05c0,0.7-0.59,1.41-1.76,1.41c-1.06,0-1.88-0.59-2.23-1.06l-0.47,0.47 C112.79,119.59,113.73,119.94,114.91,119.94z"/>
<path class="st0" d="M129.81,115.13L129.81,115.13h-2.7l0.94-3.99h2.47c1.06,0,1.76,0.82,1.76,1.76 C132.28,114.08,131.46,115.13,129.81,115.13z M126.17,119.82L126.17,119.82l0.82-3.87h2.7c2.46,0,3.4-1.76,3.4-3.16 c0-1.17-0.94-2.35-2.35-2.35h-3.29l-2.11,9.38H126.17z"/>
<path class="st0" d="M135.45,119.82L135.45,119.82l1.06-4.92c0.47-0.7,1.29-1.29,2.11-1.29c0.23,0,0.35,0,0.47,0.12l0.23-0.82 c-1.29,0-1.88,0.47-2.58,1.17l0.23-1.05h-0.7l-1.53,6.8H135.45z"/>
<path class="st0" d="M143.78,119.24L143.78,119.24c-1.41,0-2.11-0.82-2.11-2.23c0-1.76,1.17-3.52,2.82-3.52 c1.41,0,2.23,0.94,2.23,2.34C146.71,117.6,145.54,119.24,143.78,119.24z M143.78,119.94L143.78,119.94c2.11,0,3.75-1.99,3.75-4.1 c0-1.76-1.17-2.93-3.05-2.93c-2.11,0-3.64,1.99-3.64,4.1C140.84,118.77,142.02,119.94,143.78,119.94z"/>
<path class="st0" d="M152.46,119.94L152.46,119.94c1.53,0,2.46-1.06,2.46-2.11c0-1.99-3.52-1.76-3.52-3.17 c0-0.7,0.59-1.17,1.64-1.17c0.82,0,1.76,0.47,2,0.94l0.47-0.47c-0.36-0.59-1.29-1.05-2.47-1.05c-1.53,0-2.46,0.82-2.46,1.99 c0,1.76,3.64,1.64,3.64,3.05c0,0.7-0.7,1.41-1.76,1.41c-1.06,0-1.88-0.59-2.23-1.06l-0.59,0.47 C150.24,119.59,151.17,119.94,152.46,119.94z"/>
<path class="st0" d="M161.15,119.24L161.15,119.24c-1.06,0-1.88-0.47-2.24-1.17l0.7-3.28c0.47-0.7,1.3-1.29,2.24-1.29 c1.28,0,2.11,0.94,2.11,2.23C163.97,117.6,162.79,119.24,161.15,119.24z M161.15,119.94L161.15,119.94 c2.22,0,3.63-1.99,3.63-4.34c0-1.64-1.17-2.7-2.69-2.7c-0.94,0-1.77,0.47-2.35,1.17l0.23-1.05h-0.7l-2,9.26h0.7l0.83-3.63 C159.27,119.35,160.09,119.94,161.15,119.94z"/>
<path class="st0" d="M173.25,116.07L173.25,116.07h-4.93c0.23-1.41,1.41-2.58,2.82-2.58s2.22,0.94,2.22,2.23 c0,0.12,0,0.23,0,0.35H173.25z M170.66,119.94L170.66,119.94c0.81,0,1.75-0.35,2.35-0.82l-0.36-0.59 c-0.58,0.59-1.28,0.82-1.99,0.82c-1.64,0-2.47-1.06-2.47-2.34c0-0.12,0-0.23,0-0.35h5.76c0-0.23,0.11-0.59,0.11-0.82 c0-1.64-1.05-2.93-2.93-2.93c-2.11,0-3.76,1.88-3.76,4.1C167.38,118.77,168.55,119.94,170.66,119.94z"/>
<path class="st0" d="M177.24,119.82L177.24,119.82l1.05-4.92c0.47-0.7,1.3-1.29,2.11-1.29c0.23,0,0.36,0,0.47,0.12l0.13-0.82 c-1.17,0-1.88,0.47-2.58,1.17l0.34-1.05h-0.81l-1.41,6.8H177.24z"/>
<path class="st0" d="M183.1,119.82L183.1,119.82l1.41-6.8h-0.7l-1.53,6.8H183.1z M184.51,111.97L184.51,111.97 c0.23,0,0.58-0.23,0.58-0.59c0-0.23-0.23-0.47-0.47-0.47c-0.34,0-0.7,0.23-0.7,0.59C183.92,111.73,184.15,111.97,184.51,111.97z"/>
<path class="st0" d="M188.5,119.94L188.5,119.94c0.34,0,0.7-0.12,0.94-0.35l-0.13-0.59c-0.23,0.12-0.47,0.23-0.7,0.23 c-0.47,0-0.7-0.23-0.7-0.59c0-0.12,0-0.23,0-0.35l1.06-4.57h1.28l0.23-0.7h-1.41l0.47-1.88h-0.81l-0.36,1.88h-1.17l-0.11,0.7 h1.17l-1.06,4.69c-0.11,0.12-0.11,0.35-0.11,0.47C187.09,119.59,187.67,119.94,188.5,119.94z"/>
<path class="st0" d="M190.96,122.4L190.96,122.4c0.23,0,0.47,0.12,0.83,0.12c0.7,0,1.28-0.47,1.88-1.29l5.27-8.21h-0.81 l-3.75,5.86l-1.17-5.86h-0.7l1.28,6.8l-0.81,1.17c-0.36,0.59-0.7,0.82-1.06,0.82c-0.23,0-0.47-0.12-0.7-0.12L190.96,122.4z"/>
<path class="st0" d="M2.23,96.84L2.23,96.84H1.29v-3.28h0.94c1.17,0,1.64,0.7,1.64,1.64C3.87,96.14,3.29,96.84,2.23,96.84z M2.23,97.9L2.23,97.9c1.64,0,2.82-1.06,2.82-2.7s-1.17-2.7-2.82-2.7H0.12v5.39H2.23z"/>
<polygon class="st0" points="10.56,97.9 10.56,97.9 10.56,96.84 7.98,96.84 7.98,95.67 10.56,95.67 10.56,94.62 7.98,94.62 7.98,93.56 10.56,93.56 10.56,92.51 6.81,92.51 6.81,97.9"/>
<polygon class="st0" points="15.26,97.9 15.26,97.9 17.37,92.51 16.08,92.51 14.55,96.61 13.15,92.51 11.74,92.51 13.85,97.9 "/>
<polygon class="st0" points="22.54,97.9 22.54,97.9 22.54,96.84 19.95,96.84 19.95,95.67 22.54,95.67 22.54,94.62 19.95,94.62 19.95,93.56 22.54,93.56 22.54,92.51 18.78,92.51 18.78,97.9 "/>
<polygon class="st0" points="27.7,97.9 27.7,97.9 27.7,96.84 25.47,96.84 25.47,92.51 24.3,92.51 24.3,97.9 "/>
<path class="st0" d="M31.69,96.96L31.69,96.96c-1.06,0-1.64-0.7-1.64-1.76c0-1.05,0.59-1.76,1.64-1.76c0.94,0,1.64,0.7,1.64,1.76 C33.33,96.26,32.63,96.96,31.69,96.96z M31.69,98.02L31.69,98.02c1.64,0,2.82-1.17,2.82-2.81s-1.17-2.81-2.82-2.81 c-1.64,0-2.82,1.17-2.82,2.81S30.05,98.02,31.69,98.02z"/>
<path class="st0" d="M38.5,94.97L38.5,94.97h-1.17v-1.41h1.17c0.47,0,0.82,0.24,0.82,0.7C39.32,94.73,38.97,94.97,38.5,94.97z M37.32,97.9L37.32,97.9v-1.88h1.41c1.17,0,1.76-0.82,1.76-1.76c0-0.94-0.59-1.76-1.76-1.76h-2.58v5.39H37.32z"/>
<polygon class="st0" points="47.89,97.9 47.89,97.9 47.89,92.51 46.36,92.51 45.07,95.91 43.66,92.51 42.14,92.51 42.14,97.9 43.19,97.9 43.19,94.03 44.72,97.9 45.31,97.9 46.83,94.03 46.83,97.9 "/>
<polygon class="st0" points="53.76,97.9 53.76,97.9 53.76,96.84 51.06,96.84 51.06,95.67 53.64,95.67 53.64,94.62 51.06,94.62 51.06,93.56 53.76,93.56 53.76,92.51 49.88,92.51 49.88,97.9 "/>
<polygon class="st0" points="60.33,97.9 60.33,97.9 60.33,92.51 59.15,92.51 59.15,95.91 56.69,92.51 55.4,92.51 55.4,97.9 56.57,97.9 56.57,94.38 59.15,97.9 "/>
<polygon class="st0" points="64.67,97.9 64.67,97.9 64.67,93.56 66.2,93.56 66.2,92.51 61.85,92.51 61.85,93.56 63.5,93.56 63.5,97.9 "/>
<path class="st0" d="M73.36,96.84L73.36,96.84h-1.53v-1.17h1.53c0.47,0,0.7,0.24,0.7,0.59C74.06,96.73,73.71,96.84,73.36,96.84z M73.24,94.62L73.24,94.62h-1.41v-1.06h1.41c0.47,0,0.7,0.24,0.7,0.59C73.94,94.5,73.71,94.62,73.24,94.62z M73.59,97.9 L73.59,97.9c1.06,0,1.64-0.59,1.64-1.41c0-0.7-0.47-1.29-1.06-1.41c0.47-0.12,0.94-0.47,0.94-1.17c0-0.7-0.59-1.41-1.64-1.41 h-2.82v5.39H73.59z"/>
<path class="st0" d="M80.05,96.02L80.05,96.02h-1.76l0.82-2.34L80.05,96.02z M81.92,97.9L81.92,97.9l-2.11-5.39H78.4l-2.11,5.39 h1.41l0.23-0.94h2.35l0.35,0.94H81.92z"/>
<polygon class="st0" points="88.15,97.9 88.15,97.9 88.15,92.51 86.97,92.51 86.97,95.91 84.51,92.51 83.33,92.51 83.33,97.9 84.51,97.9 84.51,94.38 87.09,97.9 "/>
<polygon class="st0" points="94.72,97.9 94.72,97.9 92.37,95.08 94.6,92.51 93.19,92.51 91.2,94.97 91.2,92.51 90.02,92.51 90.02,97.9 91.2,97.9 91.2,96.26 91.67,95.79 93.31,97.9 "/>
<path class="st0" d="M101.53,96.96L101.53,96.96c-0.94,0-1.64-0.7-1.64-1.76c0-1.05,0.7-1.76,1.64-1.76 c1.06,0,1.64,0.7,1.64,1.76C103.17,96.26,102.58,96.96,101.53,96.96z M101.53,98.02L101.53,98.02c1.64,0,2.82-1.17,2.82-2.81 s-1.17-2.81-2.82-2.81c-1.64,0-2.82,1.17-2.82,2.81S99.88,98.02,101.53,98.02z"/>
<polygon class="st0" points="107.16,97.9 107.16,97.9 107.16,95.67 109.86,95.67 109.86,94.62 107.16,94.62 107.16,93.56 109.86,93.56 109.86,92.51 106.1,92.51 106.1,97.9 "/>
<path class="st0" d="M116.32,98.02L116.32,98.02c1.53,0,2.23-0.7,2.23-1.76c0-1.99-3.17-1.41-3.17-2.23 c0-0.35,0.35-0.59,0.82-0.59c0.59,0,1.17,0.24,1.53,0.59l0.7-0.82c-0.59-0.47-1.29-0.82-2.11-0.82c-1.29,0-2.11,0.82-2.11,1.64 c0,2.11,3.17,1.41,3.17,2.34c0,0.35-0.35,0.59-0.94,0.59c-0.82,0-1.41-0.35-1.76-0.7l-0.59,0.94 C114.55,97.66,115.26,98.02,116.32,98.02z"/>
<path class="st0" d="M122.65,96.96L122.65,96.96c-0.94,0-1.64-0.7-1.64-1.76c0-1.05,0.7-1.76,1.64-1.76 c1.06,0,1.64,0.7,1.64,1.76C124.3,96.26,123.71,96.96,122.65,96.96z M122.65,98.02L122.65,98.02c1.64,0,2.94-1.17,2.94-2.81 s-1.29-2.81-2.94-2.81c-1.53,0-2.82,1.17-2.82,2.81S121.13,98.02,122.65,98.02z"/>
<path class="st0" d="M129.7,98.02L129.7,98.02c1.64,0,2.35-0.94,2.35-2.23v-3.28h-1.17v3.16c0,0.82-0.35,1.29-1.17,1.29 c-0.94,0-1.29-0.47-1.29-1.29v-3.16h-1.17v3.28C127.23,97.08,128.05,98.02,129.7,98.02z"/>
<polygon class="st0" points="136.39,97.9 136.39,97.9 136.39,93.56 138.03,93.56 138.03,92.51 133.69,92.51 133.69,93.56 135.21,93.56 135.21,97.9 "/>
<polygon class="st0" points="144.48,97.9 144.48,97.9 144.48,92.51 143.31,92.51 143.31,94.62 140.73,94.62 140.73,92.51 139.55,92.51 139.55,97.9 140.73,97.9 140.73,95.67 143.31,95.67 143.31,97.9 "/>
<polygon class="st0" points="150.12,97.9 150.12,97.9 150.12,96.84 147.53,96.84 147.53,95.67 150.12,95.67 150.12,94.62 147.53,94.62 147.53,93.56 150.12,93.56 150.12,92.51 146.36,92.51 146.36,97.9 "/>
<path class="st0" d="M154.23,94.97L154.23,94.97h-1.17v-1.41h1.17c0.47,0,0.82,0.24,0.82,0.7 C155.05,94.73,154.69,94.97,154.23,94.97z M156.33,97.9L156.33,97.9l-1.28-1.99c0.58-0.24,1.17-0.7,1.17-1.64 c0-1.06-0.7-1.76-1.76-1.76h-2.58v5.39h1.17v-1.88h0.82l1.05,1.88H156.33z"/>
<polygon class="st0" points="162.79,97.9 162.79,97.9 162.79,92.51 161.62,92.51 161.62,95.91 159.15,92.51 157.98,92.51 157.98,97.9 159.15,97.9 159.15,94.38 161.73,97.9 "/>
<path class="st0" d="M170.77,96.02L170.77,96.02h-1.75l0.81-2.34L170.77,96.02z M172.65,97.9L172.65,97.9l-1.99-5.39h-1.53 l-1.99,5.39h1.28l0.36-0.94h2.22l0.36,0.94H172.65z"/>
<polygon class="st0" points="175.23,97.9 175.23,97.9 175.23,95.67 177.81,95.67 177.81,94.62 175.23,94.62 175.23,93.56 177.81,93.56 177.81,92.51 174.06,92.51 174.06,97.9"/>
<path class="st0" d="M181.93,94.97L181.93,94.97h-1.3v-1.41h1.3c0.47,0,0.81,0.24,0.81,0.7 C182.74,94.73,182.4,94.97,181.93,94.97z M183.92,97.9L183.92,97.9l-1.28-1.99c0.58-0.24,1.28-0.7,1.28-1.64 c0-1.06-0.7-1.76-1.88-1.76h-2.46v5.39h1.05v-1.88h0.94l1.06,1.88H183.92z"/>
<polygon class="st0" points="186.73,97.9 186.73,97.9 186.73,92.51 185.56,92.51 185.56,97.9 "/>
<path class="st0" d="M191.32,98.02L191.32,98.02c1.17,0,1.75-0.7,2.22-1.29l-1.05-0.47c-0.23,0.35-0.7,0.7-1.17,0.7 c-1.06,0-1.77-0.7-1.77-1.76c0-1.05,0.7-1.76,1.77-1.76c0.47,0,0.94,0.35,1.17,0.82l1.05-0.47c-0.47-0.7-1.05-1.41-2.22-1.41 c-1.64,0-2.94,1.17-2.94,2.81S189.67,98.02,191.32,98.02z"/>
<path class="st0" d="M198.12,96.02L198.12,96.02h-1.77l0.83-2.34L198.12,96.02z M200,97.9L200,97.9l-2-5.39h-1.52l-2,5.39h1.3 l0.34-0.94h2.24l0.34,0.94H200z"/>
</svg>
