<svg width="1098" height="296" viewBox="0 0 1098 296" fill="none" xmlns="http://www.w3.org/2000/svg">
<path d="M446.438 147.737H414.876L376.26 34.4841H401.651L431.098 123.04L459.663 34.4841H485.054L446.438 147.737Z" fill="black"/>
<path d="M547.651 118.453L566.166 127.803C559.994 140.152 548.004 149.854 527.726 149.854C502.511 149.854 483.821 133.977 483.821 107.87C483.821 82.9962 501.982 65.7081 526.492 65.7081C551.002 65.7081 565.813 82.114 565.813 106.81C565.813 108.928 565.813 111.75 565.637 113.161H508.33C509.388 124.804 516.794 131.684 528.255 131.684C537.071 131.332 543.243 126.745 547.651 118.453ZM525.61 82.8193C516.265 82.8193 509.741 88.9934 508.33 99.2257H541.48C540.775 88.8173 535.484 82.8193 525.61 82.8193Z" fill="black"/>
<path d="M604.784 147.737H581.333V67.4722H603.549V78.9389C608.84 70.8239 617.303 65.5317 628.06 65.5317C647.984 65.5317 658.916 77.3506 658.916 97.4613V147.737H635.289V101.166C635.289 90.4049 630.527 84.76 621.535 84.76C612.366 84.76 605.136 90.9341 605.136 102.753V147.737H604.784Z" fill="black"/>
<path d="M707.58 149.678C689.947 149.678 680.602 141.21 680.602 122.511V86.7005H669.317V67.4721H681.659L687.478 44.3629H703.877V67.4721H735.087V86.7005H703.877V120.57C703.877 126.039 705.993 129.214 710.4 129.214C714.809 129.214 717.983 125.51 721.686 117.043L739.316 126.568C731.738 141.386 722.038 149.678 707.58 149.678Z" fill="black"/>
<path d="M780.232 149.678C760.834 149.678 750.075 137.858 750.075 117.572V67.4722H773.708V114.396C773.708 124.981 778.291 130.449 786.929 130.449C795.92 130.449 802.797 124.451 802.797 112.985V67.2958H826.423V147.561H804.031V136.094C798.922 144.385 790.631 149.678 780.232 149.678Z" fill="black"/>
<path d="M867.686 147.737H844.233V67.4721H866.272V81.9371C870.508 72.0587 878.092 66.0609 889.371 66.0609C902.425 66.0609 911.944 75.0577 911.944 90.4049C911.944 94.4623 911.236 99.0488 909.649 104.165L888.318 101.872C889.025 99.4019 889.198 97.2851 889.198 95.3445C889.198 88.2881 886.376 84.9361 880.914 84.9361C873.502 84.9361 867.506 92.8747 867.506 107.34V147.737H867.686Z" fill="black"/>
<path d="M984.763 118.453L1003.28 127.803C997.111 140.152 985.117 149.854 964.839 149.854C939.626 149.854 920.935 133.977 920.935 107.87C920.935 82.9962 939.099 65.7081 963.605 65.7081C988.119 65.7081 1002.93 82.114 1002.93 106.81C1002.93 108.928 1002.93 111.75 1002.75 113.161H945.442C946.503 124.804 953.907 131.684 965.373 131.684C974.184 131.332 980.362 126.745 984.763 118.453ZM962.725 82.8193C953.38 82.8193 946.856 88.9934 945.442 99.2257H978.594C977.886 88.8173 972.597 82.8193 962.725 82.8193Z" fill="black"/>
<path d="M1052.12 149.678C1029.2 149.678 1012.81 139.622 1012.63 121.452L1034.84 118.806C1035.9 129.744 1043.31 133.095 1052.83 133.095C1060.06 133.095 1065.35 130.625 1065.35 124.804C1065.35 120.571 1063.05 118.63 1056.18 117.395L1047.01 115.807C1031.32 112.985 1016.15 108.222 1016.15 89.3465C1016.15 74.7046 1029.91 65.179 1052.47 65.179C1074.34 65.179 1086.15 75.4107 1088.45 88.6411L1067.64 93.7569C1066.23 87.7589 1062 81.7609 1052.12 81.7609C1044.36 81.7609 1039.61 84.7599 1039.61 89.3465C1039.61 94.1099 1042.78 96.0498 1050.36 97.2851L1059.53 98.6965C1074.69 100.989 1088.97 106.105 1088.97 123.922C1088.97 140.681 1073.11 149.678 1052.12 149.678Z" fill="black"/>
<path d="M437.802 290.45H413.469V177.197H461.253C485.587 177.197 503.044 190.957 503.044 214.242C503.044 237.352 485.411 251.287 461.253 251.287H437.802V290.45ZM437.802 198.189V230.295H458.785C471.128 230.295 477.829 224.474 477.829 214.242C477.829 204.01 471.128 198.365 458.433 198.365H437.802V198.189Z" fill="black"/>
<path d="M540.598 290.45H517.146V177.197H540.598V290.45Z" fill="black"/>
<path d="M586.27 292.39C568.285 292.39 555.413 282.864 555.413 267.341C555.413 253.581 568.461 242.114 586.799 242.114C596.497 242.114 604.079 245.642 608.84 249.876V241.232C608.84 231.707 603.903 226.414 594.558 226.414C586.27 226.414 580.451 231.177 578.159 239.821L556.294 236.293C561.056 219.535 574.809 208.245 596.145 208.245C618.538 208.245 632.468 218.476 632.468 242.291V290.45H610.25V280.747C604.961 288.157 595.263 292.39 586.27 292.39ZM592.442 276.69C599.495 276.69 604.785 272.633 609.016 266.811V265.224C605.49 261.167 599.495 257.285 592.442 257.285C584.683 257.285 579.394 261.343 579.394 266.988C579.394 272.809 584.507 276.69 592.442 276.69Z" fill="black"/>
<path d="M681.307 292.39C663.675 292.39 654.329 283.923 654.329 265.224V229.413H643.044V210.185H655.388L661.206 187.076H677.605V210.185H708.815V229.413H677.605V263.46C677.605 268.928 679.721 272.103 684.129 272.103C688.537 272.103 691.711 268.399 695.414 259.931L713.047 269.458C705.641 284.099 695.767 292.39 681.307 292.39Z" fill="black"/>
<path d="M756.599 290.45H732.972V229.413H720.451V210.185H732.085C730.151 205.422 729.444 201.541 729.444 197.484C729.444 183.724 742.137 175.257 757.125 175.257C770.526 175.257 778.991 180.372 782.693 188.487L768.238 198.719C766.47 194.661 763.122 192.368 758.713 192.368C754.484 192.368 751.129 195.19 751.129 200.306C751.129 203.481 752.189 206.657 754.838 210.008H775.996V229.237H756.772V290.45H756.599Z" fill="black"/>
<path d="M823.609 292.39C798.395 292.39 780.585 274.926 780.585 250.406C780.585 225.709 798.395 208.245 823.609 208.245C848.996 208.245 866.806 225.709 866.806 250.406C866.633 274.926 848.996 292.39 823.609 292.39ZM823.609 274.22C835.068 274.22 842.299 265.224 842.299 250.406C842.299 235.587 834.895 226.414 823.609 226.414C812.15 226.414 804.919 235.411 804.919 250.406C804.919 265.224 812.15 274.22 823.609 274.22Z" fill="black"/>
<path d="M904.367 290.45H880.914V210.184H903.133V224.65C907.361 214.771 914.946 208.774 926.232 208.774C939.279 208.774 948.797 217.77 948.797 233.118C948.797 237.175 948.097 241.762 946.51 246.878L925.171 244.584C925.878 242.114 926.052 239.997 926.052 238.057C926.052 231.001 923.23 227.649 917.767 227.649C910.363 227.649 904.367 235.587 904.367 250.053V290.45Z" fill="black"/>
<path d="M1059 208.245C1078.75 208.245 1088.98 220.064 1088.98 240.174V290.45H1065.53V243.526C1065.53 232.941 1060.94 227.472 1052.3 227.472C1043.31 227.472 1036.43 233.647 1036.43 245.289V290.626H1012.98V243.702C1012.98 233.118 1008.4 227.649 999.759 227.649C990.76 227.649 983.883 233.823 983.883 245.466V290.803H960.437V210.538H982.649V222.004C987.939 213.89 996.403 208.597 1006.81 208.597C1018.27 208.597 1026.73 212.478 1032.38 222.18C1038.9 211.773 1048.6 208.245 1059 208.245Z" fill="black"/>
<path fill-rule="evenodd" clip-rule="evenodd" d="M78.4435 26.7223C75.2696 26.7223 70.6851 28.4864 65.3953 32.7201C60.1054 36.9538 54.8156 43.3045 50.4074 50.89C41.062 66.2373 36.4774 84.4069 38.9461 97.2851C42.2962 114.925 59.9291 126.392 74.3879 125.863C81.2648 125.687 87.4361 122.688 93.6075 117.043C99.9557 111.221 105.598 103.282 111.241 94.4622C112.122 93.0508 113.003 91.6401 114.061 90.2287C114.767 88.9935 115.649 87.9351 116.354 86.7005C109.83 76.8214 105.069 66.4137 100.837 57.417C100.485 56.7114 100.132 55.8293 99.7789 55.1237C95.1944 45.245 91.6678 37.6595 87.6122 32.5437C83.9095 27.7807 81.0887 26.7223 78.4435 26.7223ZM131.518 66.943C127.815 60.416 124.465 53.1832 120.939 45.5978C116.707 36.2482 111.946 26.1931 105.951 18.4312C99.6028 10.3165 90.7867 3.43665 77.9145 3.61306C67.6874 3.78946 58.3421 8.72888 50.5837 14.9031C42.8253 21.2537 35.9484 29.7212 30.3059 39.0708C19.3736 57.2406 11.9679 81.2318 15.8471 101.872C21.6659 132.037 50.2311 150.03 74.7406 149.325C89.023 148.972 100.308 142.621 109.125 134.331C117.765 126.392 124.818 116.16 130.637 107.34C131.165 106.634 131.694 105.929 132.047 105.047C135.221 107.693 138.748 110.163 142.45 112.279C154.264 118.983 166.608 122.511 178.95 123.922C184.946 140.681 190.235 160.262 195.173 180.019C198.346 192.897 201.344 205.599 204.166 217.594V217.771C206.986 229.766 209.631 241.056 212.1 250.582C214.569 260.108 217.037 268.575 219.329 274.749C220.564 277.748 221.975 280.924 223.738 283.393C224.619 284.629 226.03 286.392 227.969 287.804C229.909 289.215 232.907 290.627 236.609 290.45C242.605 290.273 246.484 286.392 248.424 284.099C250.54 281.453 251.95 278.278 253.184 275.279C254.242 272.633 255.476 268.399 257.064 262.93C257.416 261.519 257.945 259.931 258.474 258.168C260.943 249.877 264.646 237.881 270.289 221.298C281.573 187.958 300.969 135.212 335.354 53.1832C337.117 48.7731 336.235 44.1866 334.119 40.8348C333.061 39.2471 330.945 36.601 327.066 35.5427C322.481 34.3078 318.25 35.719 315.428 38.3651C299.206 52.8304 272.228 74.7046 242.076 88.4643C226.382 95.6975 210.513 100.46 194.997 101.342C194.997 101.166 194.82 100.989 194.82 100.813C190.412 90.4049 185.475 80.7026 179.832 73.2939C174.366 66.0609 166.96 59.3575 157.262 57.5934C146.33 55.3001 137.69 60.7687 131.518 66.943ZM145.624 85.8183C148.27 88.2881 150.914 90.2287 154.088 91.9925C158.673 94.6391 163.61 96.579 168.371 97.9904C166.079 93.58 163.786 89.8757 161.494 86.8767C157.439 81.4079 154.617 80.1734 153.383 79.9972C153.03 79.9972 151.09 79.6442 146.33 84.9361C145.977 85.2891 145.801 85.6422 145.624 85.8183ZM203.637 123.746C208.926 139.799 213.687 157.263 217.919 174.374C221.093 187.252 224.267 200.13 227.088 212.125V212.302C229.909 224.297 232.554 235.411 234.846 244.761C235.375 246.878 235.904 248.994 236.433 250.935C239.078 242.467 242.781 230.471 248.424 213.713C258.122 185.135 273.462 143.151 298.501 81.5848C284.747 91.4633 268.878 101.519 251.95 109.28C236.962 116.16 220.564 121.629 203.637 123.746Z" fill="#F9BA40"/>
</svg>
